<?xml version="1.0" standalone="no"?>
<!DOCTYPE svg PUBLIC "-//W3C//DTD SVG 20010904//EN"
 "http://www.w3.org/TR/2001/REC-SVG-20010904/DTD/svg10.dtd">
<svg version="1.0" xmlns="http://www.w3.org/2000/svg"
 width="260.000000pt" height="260.000000pt" viewBox="0 0 260.000000 260.000000"
 preserveAspectRatio="xMidYMid meet">
<metadata>
Created by potrace 1.14, written by Peter Selinger 2001-2017
</metadata>
<g transform="translate(0.000000,260.000000) scale(0.100000,-0.100000)"
fill="#000000" stroke="none">
<path d="M1350 1943 c-29 -115 -62 -251 -75 -303 -13 -52 -84 -338 -159 -635
-75 -298 -136 -545 -136 -550 0 -9 207 -11 215 -3 4 4 425 1676 425 1688 0 6
-45 10 -109 10 l-109 0 -52 -207z"/>
<path d="M444 1620 l-421 -207 1 -114 1 -114 115 -57 c63 -31 252 -125 419
-207 167 -83 307 -149 310 -145 3 3 6 55 6 116 l0 111 -299 147 -300 148 35
17 c19 10 151 76 294 148 143 71 262 131 264 133 6 6 7 225 1 229 -3 2 -194
-90 -426 -205z"/>
<path d="M1725 1716 c0 -63 2 -117 5 -119 3 -3 136 -70 297 -150 160 -80 289
-148 285 -151 -3 -4 -134 -70 -291 -147 -157 -77 -288 -143 -291 -145 -7 -8
-6 -225 1 -230 5 -3 339 159 749 364 l95 48 0 113 c0 91 -3 116 -15 122 -20
12 -829 409 -832 409 -2 0 -3 -51 -3 -114z"/>
</g>
</svg>
